G04*
G04 #@! TF.GenerationSoftware,Altium Limited,Altium Designer,21.2.2 (38)*
G04*
G04 Layer_Color=8388736*
%FSLAX25Y25*%
%MOIN*%
G70*
G04*
G04 #@! TF.SameCoordinates,E2040CFD-8BC1-4679-B801-FCB4F48F4876*
G04*
G04*
G04 #@! TF.FilePolarity,Negative*
G04*
G01*
G75*
G04:AMPARAMS|DCode=12|XSize=55.24mil|YSize=51.31mil|CornerRadius=0mil|HoleSize=0mil|Usage=FLASHONLY|Rotation=45.000|XOffset=0mil|YOffset=0mil|HoleType=Round|Shape=Rectangle|*
%AMROTATEDRECTD12*
4,1,4,-0.00139,-0.03767,-0.03767,-0.00139,0.00139,0.03767,0.03767,0.00139,-0.00139,-0.03767,0.0*
%
%ADD12ROTATEDRECTD12*%

G04:AMPARAMS|DCode=13|XSize=58mil|YSize=508mil|CornerRadius=0mil|HoleSize=0mil|Usage=FLASHONLY|Rotation=315.000|XOffset=0mil|YOffset=0mil|HoleType=Round|Shape=Rectangle|*
%AMROTATEDRECTD13*
4,1,4,-0.20011,-0.15910,0.15910,0.20011,0.20011,0.15910,-0.15910,-0.20011,-0.20011,-0.15910,0.0*
%
%ADD13ROTATEDRECTD13*%

G04:AMPARAMS|DCode=14|XSize=58mil|YSize=483mil|CornerRadius=0mil|HoleSize=0mil|Usage=FLASHONLY|Rotation=315.000|XOffset=0mil|YOffset=0mil|HoleType=Round|Shape=Rectangle|*
%AMROTATEDRECTD14*
4,1,4,-0.19127,-0.15026,0.15026,0.19127,0.19127,0.15026,-0.15026,-0.19127,-0.19127,-0.15026,0.0*
%
%ADD14ROTATEDRECTD14*%

%ADD15C,0.02769*%
D12*
X317382Y105846D02*
D03*
X323228Y100000D02*
D03*
D13*
X324410Y153543D02*
D03*
X303196Y174757D02*
D03*
D14*
X315924Y160261D02*
D03*
X309914Y166271D02*
D03*
D15*
X317323Y94882D02*
D03*
X276378Y157480D02*
D03*
X146457Y22047D02*
D03*
X95276Y9843D02*
D03*
X271654Y35039D02*
D03*
X279921Y18898D02*
D03*
X125197Y41732D02*
D03*
X74606Y28937D02*
D03*
X291339Y135827D02*
D03*
X285039Y141732D02*
D03*
X227953Y36220D02*
D03*
X222441Y16535D02*
D03*
X63386Y115748D02*
D03*
X126378Y118898D02*
D03*
X130709Y90158D02*
D03*
X112803Y123827D02*
D03*
M02*
