G04*
G04 #@! TF.GenerationSoftware,Altium Limited,Altium Designer,21.2.2 (38)*
G04*
G04 Layer_Color=16711935*
%FSLAX25Y25*%
%MOIN*%
G70*
G04*
G04 #@! TF.SameCoordinates,E2040CFD-8BC1-4679-B801-FCB4F48F4876*
G04*
G04*
G04 #@! TF.FilePolarity,Negative*
G04*
G01*
G75*
%ADD15C,0.02769*%
%ADD21R,0.03182X0.02922*%
G04:AMPARAMS|DCode=22|XSize=31.82mil|YSize=29.22mil|CornerRadius=14.61mil|HoleSize=0mil|Usage=FLASHONLY|Rotation=180.000|XOffset=0mil|YOffset=0mil|HoleType=Round|Shape=RoundedRectangle|*
%AMROUNDEDRECTD22*
21,1,0.03182,0.00000,0,0,180.0*
21,1,0.00260,0.02922,0,0,180.0*
1,1,0.02922,-0.00130,0.00000*
1,1,0.02922,0.00130,0.00000*
1,1,0.02922,0.00130,0.00000*
1,1,0.02922,-0.00130,0.00000*
%
%ADD22ROUNDEDRECTD22*%
%ADD29R,0.03150X0.04331*%
%ADD30R,0.03150X0.06693*%
%ADD34R,0.05131X0.06115*%
%ADD35R,0.04147X0.06115*%
%ADD36R,0.03950X0.05721*%
%ADD37R,0.04934X0.06509*%
%ADD38R,0.05524X0.06509*%
%ADD39R,0.03556X0.05328*%
%ADD40R,0.10394X0.07874*%
%ADD41O,0.08280X0.03162*%
%ADD42R,0.05918X0.06509*%
%ADD43R,0.06706X0.04343*%
D15*
X317323Y94882D02*
D03*
X276378Y157480D02*
D03*
X146457Y22047D02*
D03*
X95276Y9843D02*
D03*
X271654Y35039D02*
D03*
X279921Y18898D02*
D03*
X125197Y41732D02*
D03*
X74606Y28937D02*
D03*
X291339Y135827D02*
D03*
X285039Y141732D02*
D03*
X227953Y36220D02*
D03*
X222441Y16535D02*
D03*
X63386Y115748D02*
D03*
X126378Y118898D02*
D03*
X130709Y90158D02*
D03*
X112803Y123827D02*
D03*
D21*
X144409Y82677D02*
D03*
D22*
X131181D02*
D03*
D29*
X11811Y195472D02*
D03*
D30*
X18504Y188976D02*
D03*
X5118D02*
D03*
D34*
X91732Y125984D02*
D03*
X97244D02*
D03*
Y88583D02*
D03*
X91732D02*
D03*
D35*
X18996Y15748D02*
D03*
X12500D02*
D03*
D36*
X134646Y145669D02*
D03*
X140945D02*
D03*
D37*
X134153Y129921D02*
D03*
X141437D02*
D03*
X134153Y114173D02*
D03*
X141437D02*
D03*
D38*
X133858Y98425D02*
D03*
X141732D02*
D03*
D39*
X98228Y150492D02*
D03*
X90748D02*
D03*
Y140847D02*
D03*
X94488D02*
D03*
X98228D02*
D03*
D40*
X13780Y80709D02*
D03*
Y90551D02*
D03*
Y70866D02*
D03*
Y100394D02*
D03*
Y110236D02*
D03*
Y120079D02*
D03*
Y129921D02*
D03*
Y139764D02*
D03*
D41*
X77362Y98799D02*
D03*
Y103799D02*
D03*
Y108799D02*
D03*
Y113799D02*
D03*
X103740Y98799D02*
D03*
Y103799D02*
D03*
Y108799D02*
D03*
Y113799D02*
D03*
D42*
X255118Y15748D02*
D03*
X248819D02*
D03*
X306299D02*
D03*
X300000D02*
D03*
X203937D02*
D03*
X197638D02*
D03*
X152756D02*
D03*
X146457D02*
D03*
X101575D02*
D03*
X95276D02*
D03*
X50394D02*
D03*
X44094D02*
D03*
D43*
X312795Y41929D02*
D03*
Y28937D02*
D03*
X293504D02*
D03*
Y41929D02*
D03*
X261614D02*
D03*
Y28937D02*
D03*
X242323D02*
D03*
Y41929D02*
D03*
X210433D02*
D03*
Y28937D02*
D03*
X191142D02*
D03*
Y41929D02*
D03*
X159252D02*
D03*
Y28937D02*
D03*
X139961D02*
D03*
Y41929D02*
D03*
X108071D02*
D03*
Y28937D02*
D03*
X88779D02*
D03*
Y41929D02*
D03*
X56890D02*
D03*
Y28937D02*
D03*
X37598D02*
D03*
Y41929D02*
D03*
M02*
