G04*
G04 #@! TF.GenerationSoftware,Altium Limited,Altium Designer,21.2.2 (38)*
G04*
G04 Layer_Color=16711935*
%FSLAX25Y25*%
%MOIN*%
G70*
G04*
G04 #@! TF.SameCoordinates,E2040CFD-8BC1-4679-B801-FCB4F48F4876*
G04*
G04*
G04 #@! TF.FilePolarity,Positive*
G04*
G01*
G75*
%ADD10C,0.01000*%
%ADD46C,0.00394*%
D10*
X214961Y94488D02*
X214390Y95296D01*
X213744Y96046D01*
X213029Y96730D01*
X212251Y97341D01*
X211418Y97875D01*
X210538Y98327D01*
X209618Y98692D01*
X208667Y98966D01*
X207695Y99147D01*
X206709Y99235D01*
X205720Y99226D01*
X204736Y99123D01*
X203766Y98926D01*
X202820Y98636D01*
X201907Y98256D01*
X201034Y97790D01*
X200210Y97242D01*
X199443Y96618D01*
X198739Y95922D01*
X198106Y95162D01*
X197548Y94345D01*
X197072Y93477D01*
X196681Y92568D01*
X196380Y91626D01*
X196171Y90659D01*
X196057Y89676D01*
X196037Y88687D01*
X196112Y87700D01*
X196282Y86725D01*
X196546Y85772D01*
X196899Y84848D01*
X197341Y83962D01*
X197865Y83123D01*
X198468Y82338D01*
X199143Y81615D01*
X199885Y80961D01*
X200686Y80380D01*
X201540Y79880D01*
X202437Y79464D01*
X203371Y79136D01*
X204332Y78900D01*
X205311Y78758D01*
X206299Y78710D01*
X245517Y89370D02*
X245467Y90374D01*
X245317Y91368D01*
X245069Y92342D01*
X244725Y93287D01*
X244289Y94193D01*
X243765Y95050D01*
X243158Y95852D01*
X242474Y96589D01*
X241720Y97254D01*
X240904Y97841D01*
X240033Y98343D01*
X239117Y98757D01*
X238164Y99077D01*
X237184Y99300D01*
X236187Y99426D01*
X235182Y99451D01*
X234179Y99375D01*
X233189Y99201D01*
X232222Y98929D01*
X231286Y98561D01*
X230391Y98103D01*
X229547Y97557D01*
X228761Y96931D01*
X228041Y96229D01*
X227395Y95459D01*
X226829Y94628D01*
X226348Y93745D01*
X225957Y92819D01*
X225661Y91858D01*
X225462Y90873D01*
X225362Y89873D01*
X225362Y88867D01*
X225462Y87867D01*
X225661Y86882D01*
X225957Y85921D01*
X226348Y84995D01*
X226829Y84112D01*
X227395Y83281D01*
X228041Y82512D01*
X228761Y81810D01*
X229547Y81183D01*
X230391Y80637D01*
X231286Y80179D01*
X232222Y79812D01*
X233189Y79539D01*
X234179Y79365D01*
X235182Y79290D01*
X236187Y79315D01*
X237184Y79440D01*
X238164Y79663D01*
X239117Y79984D01*
X240033Y80397D01*
X240904Y80900D01*
X241720Y81486D01*
X242474Y82152D01*
X243158Y82888D01*
X243765Y83690D01*
X244289Y84548D01*
X244725Y85453D01*
X245069Y86398D01*
X245317Y87372D01*
X245467Y88366D01*
X245517Y89370D01*
X195276Y135433D02*
X215354D01*
X195276D02*
Y147638D01*
X215354Y94882D02*
Y135433D01*
X214961Y94488D02*
X215354Y94882D01*
X222047Y78740D02*
Y135433D01*
X222017Y78710D02*
X222047Y78740D01*
X206299Y78710D02*
X222017D01*
X195276Y147638D02*
X257480D01*
X222047Y135433D02*
X248031D01*
X248425Y79134D02*
X278740D01*
X257480Y93307D02*
X278740D01*
X257480D02*
Y147638D01*
X248031Y79528D02*
X248425Y79134D01*
X248031Y79528D02*
Y135433D01*
X278740Y79134D02*
Y93307D01*
D46*
X85433Y99311D02*
X85169Y100295D01*
X84449Y101016D01*
X83465Y101279D01*
X82480Y101016D01*
X81760Y100295D01*
X81496Y99311D01*
X81760Y98327D01*
X82480Y97606D01*
X83465Y97342D01*
X84449Y97606D01*
X85169Y98327D01*
X85433Y99311D01*
X90158Y123130D02*
Y128839D01*
X98819Y123130D02*
Y128839D01*
X90158Y123130D02*
X98819D01*
X90158Y128839D02*
X98819D01*
X11417Y18602D02*
X20079D01*
X11417Y12894D02*
X20079D01*
Y18602D01*
X11417Y12894D02*
Y18602D01*
X133661Y143012D02*
X141929D01*
X133661Y148327D02*
X141929D01*
X133661Y143012D02*
Y148327D01*
X141929Y143012D02*
Y148327D01*
X133465Y127067D02*
X142126D01*
X133465Y132776D02*
X142126D01*
X133465Y127067D02*
Y132776D01*
X142126Y127067D02*
Y132776D01*
X133465Y111319D02*
X142126D01*
X133465Y117028D02*
X142126D01*
X133465Y111319D02*
Y117028D01*
X142126Y111319D02*
Y117028D01*
X133661Y95768D02*
Y101083D01*
X141929Y95768D02*
Y101083D01*
X133661Y95768D02*
X141929D01*
X133661Y101083D02*
X141929D01*
X88779Y142520D02*
Y148819D01*
X100197Y142520D02*
Y148819D01*
X88779D02*
X100197D01*
X88779Y142520D02*
X100197D01*
X315503Y103967D02*
X319261Y107725D01*
X321349Y98121D02*
X325108Y101879D01*
X319261Y107725D02*
X325108Y101879D01*
X315503Y103967D02*
X321349Y98121D01*
X90158Y91437D02*
X98819D01*
X90158Y85728D02*
X98819D01*
Y91437D01*
X90158Y85728D02*
Y91437D01*
X79921Y95768D02*
Y116831D01*
X101181Y95768D02*
Y116831D01*
X79921Y95768D02*
X101181D01*
X79921Y116831D02*
X101181D01*
X247638Y18602D02*
X256299D01*
X247638Y12894D02*
X256299D01*
Y18602D01*
X247638Y12894D02*
Y18602D01*
X298819D02*
X307480D01*
X298819Y12894D02*
X307480D01*
Y18602D01*
X298819Y12894D02*
Y18602D01*
X196457D02*
X205118D01*
X196457Y12894D02*
X205118D01*
Y18602D01*
X196457Y12894D02*
Y18602D01*
X145276D02*
X153937D01*
X145276Y12894D02*
X153937D01*
Y18602D01*
X145276Y12894D02*
Y18602D01*
X94095D02*
X102756D01*
X94095Y12894D02*
X102756D01*
Y18602D01*
X94095Y12894D02*
Y18602D01*
X42913D02*
X51575D01*
X42913Y12894D02*
X51575D01*
Y18602D01*
X42913Y12894D02*
Y18602D01*
X312992Y25591D02*
Y45276D01*
X293307D02*
X312992D01*
X293307Y25591D02*
X312992D01*
X293307D02*
Y45276D01*
X261811Y25591D02*
Y45276D01*
X242126D02*
X261811D01*
X242126Y25591D02*
X261811D01*
X242126D02*
Y45276D01*
X210630Y25591D02*
Y45276D01*
X190945D02*
X210630D01*
X190945Y25591D02*
X210630D01*
X190945D02*
Y45276D01*
X159449Y25591D02*
Y45276D01*
X139764D02*
X159449D01*
X139764Y25591D02*
X159449D01*
X139764D02*
Y45276D01*
X108268Y25591D02*
Y45276D01*
X88583D02*
X108268D01*
X88583Y25591D02*
X108268D01*
X88583D02*
Y45276D01*
X57087Y25591D02*
Y45276D01*
X37402D02*
X57087D01*
X37402Y25591D02*
X57087D01*
X37402D02*
Y45276D01*
M02*
